<?xml version="1.0" encoding="UTF-8" standalone="no"?>
<svg
   version="1.1"
   id="svg1"
   width="12014.2"
   height="1529.4932"
   viewBox="0 0 12014.2 1529.4932"
   xmlns:xlink="http://www.w3.org/1999/xlink"
   xmlns="http://www.w3.org/2000/svg"
   xmlns:svg="http://www.w3.org/2000/svg"
   fill="#ffffff">
   <g
      id="layer-MC1"
      transform="translate(-1333.3337,-1333.333)">
      <path
         id="path30"
         fill-rule="evenodd"
         class="s0"
         d="m 9580.4441,1682.3067 q 79.6056,144.5858 79.6056,332.0707 0,174.7741 -74.8291,316.1822 -76.4214,139.8193 -202.1978,224.0287 124.1845,155.7077 206.9742,308.2378 h -229.2638 q -63.6843,-119.1641 -143.2899,-230.3839 c -60.5,17.4774 -124.1843,27.0104 -186.2766,27.0104 q -136.9214,0 -253.1455,-47.6656 c -74.8289,-31.777 -141.6977,-76.265 -199.0135,-135.0527 -57.316,-58.7877 -101.895,-127.1085 -130.5529,-203.3735 q -47.7634,-117.5753 -46.1712,-258.9834 0,-139.8192 46.1712,-257.3944 c 28.6579,-76.2652 73.2369,-146.1747 130.5529,-204.9624 57.3158,-57.1988 124.1846,-103.2756 199.0135,-133.4638 q 116.2241,-47.6658 253.1455,-47.6658 183.0925,0 326.3822,82.6206 c 93.9345,54.0211 170.3557,133.4637 222.8952,228.7951 z m -912.2783,568.8102 q 54.1317,103.2755 148.0661,160.4743 93.9345,58.7877 214.9348,58.7877 122.5923,0 216.5267,-58.7877 92.3423,-57.1988 146.474,-160.4743 54.1317,-101.6868 54.1317,-236.7395 0,-133.4639 -54.1317,-236.7394 -54.1317,-103.2756 -146.474,-160.4743 -93.9344,-57.1989 -216.5267,-57.1989 -121.0003,0 -214.9348,57.1989 -93.9344,57.1987 -148.0661,160.4743 -54.1316,103.2755 -54.1316,236.7394 0,135.0527 54.1316,236.7395 z" />
      <path
         id="path31"
         class="s0"
         d="m 10656.737,2637.2086 h -192.654 V 2503.745 q -106.677,155.7076 -296.147,155.7076 -163.991,0 -251.5566,-103.2755 -87.5665,-103.2756 -87.5665,-295.5272 v -551.3327 h 194.2381 v 529.0888 q 0,128.6973 44.578,190.6627 46.172,60.3764 143.296,60.3764 84.386,0 149.666,-42.899 65.279,-44.4879 101.9,-123.9307 v -613.2982 h 194.246 z"
      />
      <path
         id="path32"
         fill-rule="evenodd"
         class="s0"
         d="m 11296.797,2659.4526 q -140.113,0 -246.789,-61.9653 c -70.056,-41.3102 -127.376,-100.0979 -165.588,-171.5963 q -58.91,-109.6311 -58.91,-251.0391 0,-142.997 57.318,-252.628 58.911,-109.631 162.403,-173.1852 101.901,-61.9654 235.644,-61.9654 133.744,0 229.275,63.5542 95.531,61.9654 148.073,174.774 50.951,112.8088 50.951,265.3388 v 55.61 h -683.049 q 17.514,112.8088 92.347,177.9517 73.241,65.1431 184.693,65.1431 90.755,0 156.035,-25.4216 65.28,-27.0106 122.599,-81.0316 l 106.676,130.286 q -160.811,146.1747 -391.678,146.1747 z m 146.481,-738.8175 q -62.095,-63.5543 -165.588,-63.5543 -100.308,0 -167.179,65.1431 -66.872,65.143 -84.386,176.3629 h 490.394 q -9.553,-112.8088 -73.241,-177.9517 z"
      />
      <path
         id="path33"
         class="s0"
         d="m 12506.86,2580.01 q -103.493,79.4426 -277.04,79.4426 -148.074,0 -256.343,-52.4322 -109.861,-50.8433 -162.403,-138.2303 l 130.559,-114.3977 q 41.397,63.5542 113.045,98.5091 71.649,36.5436 171.957,36.5436 186.285,0 186.285,-108.0421 0,-46.0768 -30.251,-74.6762 -30.251,-27.0105 -101.9,-38.1325 l -178.325,-31.777 q -127.375,-22.2441 -194.247,-90.5649 -66.872,-66.7319 -66.872,-173.1852 0,-128.6973 103.492,-206.5513 103.492,-79.4426 278.633,-79.4426 127.375,0 229.275,52.4322 100.308,52.4323 149.666,135.0527 l -135.337,101.6867 q -33.435,-55.6098 -100.307,-87.3871 -66.871,-31.777 -154.442,-31.777 -84.386,0 -128.967,27.0106 -44.581,28.5992 -44.581,79.4427 0,44.4879 27.067,68.3208 28.658,23.8328 93.939,34.9548 l 200.615,36.5437 q 121.007,20.6551 186.287,90.5648 63.687,69.9095 63.687,174.7738 0,133.464 -103.492,211.318 z"
      />
      <path
         id="path34"
         class="s0"
         d="m 12871.471,1874.5582 h -186.287 v -165.241 h 186.287 V 1437.623 h 194.246 v 271.6942 h 281.817 v 165.241 h -281.817 v 416.2801 q 0,104.8644 35.028,147.7634 36.62,44.488 122.599,44.488 31.843,1.5889 65.28,-1.5888 27.067,-3.1778 58.91,-9.5332 v 163.6521 q -36.62,9.5332 -74.833,15.8886 -42.988,6.3554 -87.57,6.3554 -313.66,0 -313.66,-343.1928 z"
      />
      <path
         id="path1"
         d="M 0,0 H 188.076 L 507.873,-578.488 827.666,0 h 184.005 V -950.564 H 858.224 v 728.536 L 577.807,-726.507 H 433.864 L 153.447,-222.028 V -950.564 H 0 Z"
         transform="matrix(1.3333333,0,0,-1.3333333,3761.8857,1376.1755)" />
      <path
         id="path2"
         d="m 0,0 c -32.145,32.812 -74.244,49.227 -126.289,49.227 -50.701,0 -93.138,-16.753 -127.307,-50.25 -34.182,-33.497 -55.796,-78.536 -64.844,-135.116 H 54.998 C 50.467,-78.198 32.132,-32.829 0,0 m -112.033,-563.894 c -71.07,0 -133.533,15.738 -187.395,47.189 -53.871,31.46 -95.853,75.033 -125.951,130.702 -30.106,55.679 -45.151,119.5 -45.151,191.471 0,72.874 14.706,137.38 44.132,193.509 29.422,56.12 70.277,100.032 122.556,131.725 52.284,31.677 112.371,47.528 180.268,47.528 67.441,0 125.495,-15.955 174.158,-47.866 48.65,-31.919 86.11,-76.619 112.367,-134.101 26.248,-57.491 39.381,-124.928 39.381,-202.336 v -42.091 H -318.44 c 9.508,-57.95 32.929,-103.544 70.276,-136.815 37.343,-33.272 84.533,-49.904 141.564,-49.904 45.715,0 85.096,6.79 118.142,20.369 33.037,13.58 64.046,34.174 93.021,61.783 l 81.476,-99.806 C 105.005,-526.781 5.654,-563.894 -112.033,-563.894"
         transform="matrix(1.3333333,0,0,-1.3333333,5920.1009,1914.3737)" />
      <path
         id="path4"
         d="M 0,0 H -141.229 V 125.612 H 0 V 333.377 H 148.015 V 125.612 H 362.568 V 0 H 148.015 v -318.436 c 0,-52.955 9.048,-90.754 27.158,-113.386 18.098,-22.64 49.11,-33.948 93.021,-33.948 19.454,0 35.987,0.781 49.566,2.376 13.579,1.578 28.515,3.738 44.808,6.452 v -124.251 c -16.748,-4.978 -35.643,-9.053 -56.693,-12.227 -21.049,-3.156 -43.113,-4.752 -66.2,-4.752 C 79.884,-598.172 0,-510.817 0,-336.091 Z"
         transform="matrix(1.3333333,0,0,-1.3333333,6437.9505,1866.8549)" />
      <path
         id="path6"
         d="m 0,0 c -15.851,40.287 -40.855,72.076 -75.028,95.401 -34.183,23.309 -73.667,34.963 -118.481,34.963 -63.378,0 -113.845,-21.279 -151.409,-63.821 -37.577,-42.55 -56.355,-100.04 -56.355,-172.463 0,-72.882 18.097,-130.59 54.317,-173.14 36.207,-42.55 85.317,-63.82 147.338,-63.82 45.711,0 86.449,11.767 122.214,35.309 35.751,23.525 61.553,55.219 77.404,95.055 z M 148.015,-460.342 H 2.714 v 99.131 c -25.801,-37.122 -58.627,-65.755 -98.449,-85.89 -39.836,-20.134 -85.105,-30.219 -135.797,-30.219 -62.464,0 -117.8,15.964 -166.008,47.874 -48.208,31.911 -86.123,75.813 -113.728,131.717 -27.614,55.904 -41.419,119.837 -41.419,191.809 0,72.423 14.026,136.478 42.1,192.156 28.06,55.67 66.877,99.347 116.442,131.04 49.565,31.677 106.483,47.528 170.759,47.528 48.434,0 91.886,-9.4 130.365,-28.182 38.47,-18.782 70.38,-45.385 95.735,-79.776 v 90.979 h 145.301 z"
         transform="matrix(1.3333333,0,0,-1.3333333,7752.4668,2029.8059)" />
   </g>
   <g
      id="layer-MC2"
      transform="translate(-1333.3337,-1333.333)">
      <path
         id="path8"
         d="m 0,0 -88.23,147.148 c -23.877,38.832 -46.757,74.515 -68.838,107.23 79.519,122.736 145.113,183.892 223.126,183.892 162.069,0 291.724,-238.62 291.724,-531.724 0,-111.724 -36.593,-176.552 -112.414,-176.552 C 172.698,-270.006 137.981,-222.012 0,0 m -481.528,-25.178 c -127.587,-200 -171.724,-244.828 -242.759,-244.828 -73.103,0 -116.552,64.179 -116.552,178.621 0,244.828 122.069,495.172 267.587,495.172 78.801,0 144.653,-45.51 245.522,-189.913 C -423.509,66.963 -481.528,-25.178 -481.528,-25.178 m 557.93,592.414 c -123.391,0 -219.847,-92.936 -307.163,-210.993 -119.989,152.778 -220.336,210.993 -340.422,210.993 -244.828,0 -432.414,-318.621 -432.414,-655.862 0,-211.035 102.095,-344.138 273.103,-344.138 123.081,0 211.601,58.026 368.966,333.103 0,0 65.597,115.841 110.725,195.639 15.813,-25.532 32.431,-53.002 49.964,-82.535 l 73.793,-124.138 C 16.702,-351.243 96.793,-432.764 241.92,-432.764 c 166.596,0 259.31,134.923 259.31,350.345 0,353.103 -191.816,649.655 -424.828,649.655"
         transform="matrix(1.3333333,0,0,-1.3333333,2671.4631,2089.6476)" />
   </g>
</svg>